<?xml version="1.0" standalone="no"?>
<!DOCTYPE svg PUBLIC "-//W3C//DTD SVG 20010904//EN"
 "http://www.w3.org/TR/2001/REC-SVG-20010904/DTD/svg10.dtd">
<svg version="1.0" xmlns="http://www.w3.org/2000/svg"
 width="500.000000pt" height="500.000000pt" viewBox="0 0 500.000000 500.000000"
 preserveAspectRatio="xMidYMid meet">
<metadata>
Created by potrace 1.11, written by Peter Selinger 2001-2013
</metadata>
<g transform="translate(0.000000,500.000000) scale(0.100000,-0.100000)"
fill="#000000" stroke="none">
<path d="M3700 3837 c0 -7 7 -22 15 -33 12 -16 14 -17 15 -2 0 23 -11 48 -21
48 -5 0 -9 -6 -9 -13z"/>
<path d="M3626 3823 c-11 -12 -6 -56 9 -73 13 -15 26 -48 67 -168 11 -30 9
-35 -20 -65 -42 -43 -43 -87 -5 -115 l28 -20 -19 -51 -18 -52 37 -60 c53 -86
36 -114 -51 -82 l-49 19 -5 154 c-4 110 -6 51 -8 -203 l-2 -358 -109 3 c-81 2
-107 0 -104 -9 3 -9 -16 -13 -69 -15 l-73 -3 -3 -41 c-2 -27 2 -45 13 -54 22
-18 22 -311 0 -330 -9 -7 -15 -29 -15 -52 0 -21 -7 -52 -15 -68 -8 -16 -20
-62 -27 -103 -9 -60 -15 -75 -34 -84 -20 -9 -23 -8 -28 16 -3 14 -6 60 -8 101
-3 68 -1 75 17 78 70 11 65 1 65 131 0 133 0 133 -83 123 l-36 -4 -3 -62 -3
-61 -42 -3 -43 -3 0 133 c0 98 4 140 15 162 8 15 15 50 15 77 l0 49 38 0 c50
0 62 14 61 75 -1 84 -17 100 -18 18 l-1 -73 -90 0 c-86 0 -90 1 -91 23 l0 22
-9 -22 c-9 -22 -15 -23 -111 -23 -56 0 -99 -3 -95 -7 4 -4 33 -8 64 -8 l57 0
3 -47 c2 -25 10 -52 18 -58 21 -18 21 -312 -1 -330 -9 -7 -15 -29 -15 -51 0
-41 18 -59 59 -59 26 0 27 -5 41 -210 6 -91 13 -183 16 -206 5 -36 3 -41 -20
-52 -31 -14 -34 -37 -6 -52 22 -12 208 -3 248 11 29 11 28 33 -2 56 -22 16
-24 28 -31 126 -7 113 -9 107 36 111 7 1 18 -23 25 -51 18 -70 46 -124 86
-163 38 -38 101 -69 141 -70 22 0 27 4 27 25 0 14 -9 34 -20 45 -20 20 -28 56
-11 45 5 -3 22 13 38 35 15 22 31 40 34 40 7 0 19 -51 19 -80 0 -9 -9 -27 -19
-39 -20 -23 -18 -56 5 -65 27 -10 94 26 134 72 45 50 70 120 70 193 0 42 5 54
38 90 20 22 54 49 74 60 40 20 63 25 54 10 -4 -5 5 -18 18 -28 42 -31 38 -123
-10 -232 -14 -31 -34 -78 -44 -106 -10 -27 -21 -58 -25 -67 -4 -11 -3 -18 4
-18 6 0 11 7 11 15 0 22 61 157 82 181 10 11 18 24 18 28 0 5 13 23 29 41 16
18 37 55 46 81 22 60 32 71 70 80 27 7 29 6 16 -10 -26 -31 -1 -30 38 2 55 44
92 43 142 -5 28 -26 41 -49 46 -76 4 -28 10 -37 22 -35 13 3 15 15 12 76 -3
80 6 102 46 102 29 0 56 -54 55 -115 0 -53 14 -77 41 -73 27 4 34 39 13 61 -8
8 -18 28 -21 43 -4 16 -13 50 -21 76 -14 44 -14 49 6 87 17 35 25 41 53 41 21
0 40 -9 57 -26 17 -18 26 -22 29 -13 2 7 -12 27 -31 44 -37 32 -62 93 -34 81
9 -3 23 -9 32 -13 28 -11 12 12 -39 56 -34 29 -43 41 -30 41 10 0 27 6 38 14
11 7 41 16 67 20 26 4 50 12 54 17 4 7 -8 8 -33 3 -34 -6 -37 -6 -24 9 11 15
10 18 -12 26 -14 6 -31 19 -37 31 -6 11 -18 20 -27 20 -13 0 -13 3 2 28 30 45
108 112 132 112 24 0 32 25 11 33 -10 3 -7 15 10 46 29 51 26 82 -10 99 -47
22 -32 52 43 90 26 13 76 50 113 83 37 32 78 62 92 65 47 12 56 74 10 74 -26
0 -66 -26 -66 -43 0 -7 -37 -39 -81 -72 -45 -33 -104 -84 -132 -112 -32 -35
-58 -53 -73 -53 -29 0 -30 11 -4 35 27 25 25 35 -8 35 -47 0 -168 88 -124 90
4 1 24 16 45 35 33 29 41 43 53 106 15 71 10 100 -15 85 -14 -9 -61 -108 -61
-129 0 -9 -15 -45 -34 -79 -26 -50 -39 -64 -60 -66 -40 -5 -43 22 -7 63 35 40
35 39 21 66 -15 26 -42 24 -70 -6 -21 -22 -22 -29 -12 -46 16 -25 6 -42 -20
-36 -28 8 -68 -13 -68 -35 0 -14 -8 -18 -31 -18 -26 0 -30 3 -24 18 17 41 16
51 -4 61 -22 12 -28 45 -11 56 6 3 10 12 10 18 0 8 -3 8 -8 2 -25 -35 -82 46
-82 118 0 63 -35 102 -66 76 -22 -18 -17 -55 11 -85 14 -15 25 -35 25 -45 0
-19 -35 -49 -58 -49 -20 0 -50 78 -67 172 -8 45 -28 126 -45 178 -17 52 -34
116 -37 142 -6 53 -26 79 -45 60 -9 -9 -7 -21 6 -49 25 -50 56 -152 56 -181
l0 -24 -31 26 c-17 14 -37 26 -44 26 -7 0 -22 26 -33 58 -11 31 -25 71 -31 87
-6 17 -16 49 -21 72 -10 40 -39 70 -54 56z m237 -393 c3 -11 1 -18 -4 -14 -5
3 -9 12 -9 20 0 20 7 17 13 -6z m-203 -455 c0 -16 -35 -30 -50 -20 -12 7 -14
68 -3 79 9 9 53 -40 53 -59z m738 -67 c21 -21 13 -27 -19 -16 -23 8 -27 13
-17 19 17 12 22 11 36 -3z m114 -58 c-1 -13 -6 -28 -10 -32 -11 -11 -72 14
-72 29 0 17 31 33 60 30 20 -2 24 -7 22 -27z m-900 -23 c1 -20 -1 -39 -5 -43
-4 -4 -7 14 -7 41 0 56 8 57 12 2z m-137 -107 c3 -5 11 -10 16 -10 6 0 7 5 4
10 -8 14 -3 13 33 -6 31 -15 31 -16 18 -47 -9 -22 -19 -31 -32 -29 -14 2 -16
1 -5 -6 15 -11 4 -39 -23 -62 -9 -7 -16 -27 -16 -45 0 -28 -4 -33 -31 -39 -17
-3 -36 -3 -41 0 -13 8 -4 122 11 137 6 6 11 33 11 59 0 44 2 48 24 48 14 0 28
-4 31 -10z m-17 -266 c21 -6 23 -11 20 -63 -2 -36 -7 -55 -15 -54 -6 1 -17 -4
-23 -12 -16 -20 -36 -19 -44 1 -12 31 -6 102 10 118 17 18 20 18 52 10z m247
-97 c10 -8 15 -19 11 -26 -12 -19 -87 -71 -103 -71 -19 0 -17 74 3 94 19 20
64 21 89 3z m119 -52 c20 -8 36 -19 36 -23 0 -4 -15 -23 -34 -43 -19 -19 -35
-44 -37 -54 -2 -10 -25 -33 -50 -51 l-46 -32 -27 64 c-16 35 -26 71 -22 79 3
8 20 21 38 29 26 11 98 42 104 45 1 1 18 -6 38 -14z m-344 -124 c0 -16 -28
-32 -64 -38 -31 -5 -36 -3 -36 14 0 11 3 23 7 26 10 10 93 8 93 -2z m10 -138
c7 -80 6 -101 -6 -114 -17 -18 -19 -33 -3 -23 20 12 -7 -29 -39 -60 l-30 -28
-6 43 c-3 24 -8 83 -11 130 l-6 85 41 38 c23 21 44 35 47 33 2 -3 9 -50 13
-104z"/>
<path d="M4050 3680 c0 -5 5 -10 10 -10 6 0 10 5 10 10 0 6 -4 10 -10 10 -5 0
-10 -4 -10 -10z"/>
<path d="M3765 3653 c4 -10 10 -26 12 -35 3 -10 9 -15 14 -13 10 7 -10 65 -23
65 -6 0 -7 -8 -3 -17z"/>
<path d="M4070 3591 c0 -12 5 -21 10 -21 6 0 10 6 10 14 0 8 -4 18 -10 21 -5
3 -10 -3 -10 -14z"/>
<path d="M521 3583 c0 -12 2 -13 6 -5 4 10 9 9 20 -5 13 -17 13 -16 3 5 -13
26 -30 29 -29 5z"/>
<path d="M519 3553 c-1 -5 -1 -11 0 -16 1 -4 -10 -11 -23 -16 -13 -5 -26 -17
-30 -26 -3 -9 -11 -13 -18 -9 -7 5 -9 2 -5 -8 3 -10 0 -15 -8 -14 -8 0 -13 -2
-12 -6 1 -3 -7 -17 -19 -30 -32 -36 -40 -56 -12 -30 l26 23 6 -26 c6 -22 9
-25 21 -15 8 7 15 20 14 29 0 12 -2 12 -8 -3 -5 -14 -10 -16 -15 -8 -4 7 -4
17 0 24 5 7 3 8 -6 3 -9 -5 -11 -4 -6 4 4 6 11 9 16 6 4 -3 19 4 31 15 21 18
21 19 4 14 -13 -5 -7 6 20 33 25 25 44 37 51 32 12 -10 24 -2 24 15 0 6 -4 4
-10 -4 -8 -12 -10 -12 -16 3 -6 17 -23 23 -25 10z"/>
<path d="M712 3481 c-10 -6 -13 -61 -12 -253 1 -272 -6 -307 -70 -397 -24 -33
-36 -41 -61 -41 -20 0 -28 -4 -23 -12 4 -6 -4 -3 -18 8 -23 17 -25 21 -11 36
24 27 -4 33 -32 6 -22 -21 -23 -24 -8 -40 9 -10 13 -21 9 -26 -4 -4 -60 -7
-124 -7 -128 0 -196 17 -230 58 -9 12 -24 23 -32 25 -29 5 56 -58 100 -74 75
-28 69 -34 -38 -34 l-102 0 0 -49 c0 -28 5 -53 10 -56 13 -8 13 -312 0 -320
-17 -11 -12 -102 6 -109 20 -8 128 -8 148 0 19 7 22 75 4 103 -21 34 -4 48 66
53 116 10 150 52 150 188 0 94 -15 134 -61 168 l-27 20 65 7 c35 4 70 12 78
18 7 6 31 12 52 12 51 1 90 39 131 125 17 36 37 71 45 78 10 10 12 51 11 175
l-2 162 -3 -163 c-2 -106 -7 -161 -14 -157 -13 8 -11 482 2 490 5 4 10 -28 11
-77 l2 -83 3 79 c4 81 -2 101 -25 87z m-414 -893 c7 -7 12 -29 12 -50 0 -41
-19 -58 -64 -58 -25 0 -26 3 -26 53 0 30 3 57 7 60 11 11 58 8 71 -5z"/>
<path d="M93 3456 c0 -8 8 -11 19 -8 10 2 15 8 12 13 -8 14 -31 11 -31 -5z"/>
<path d="M153 3455 c-18 -20 -16 -27 6 -20 11 3 31 3 44 0 l25 -7 0 -211 c0
-146 4 -221 13 -242 10 -24 13 -27 17 -11 2 10 -1 23 -7 29 -12 12 -16 342 -5
371 3 9 15 16 25 16 21 0 25 15 7 26 -7 4 -8 3 -4 -4 4 -7 1 -12 -9 -12 -9 0
-20 12 -26 28 -5 15 -19 33 -30 40 -12 8 -18 9 -14 3 3 -6 1 -11 -4 -11 -6 0
-11 5 -11 10 0 14 -13 12 -27 -5z"/>
<path d="M2356 3455 c-11 -8 -14 -15 -7 -15 7 0 9 -5 6 -10 -5 -8 -12 -7 -23
2 -14 10 -15 10 -5 -2 10 -11 10 -17 0 -29 -10 -12 -9 -13 2 -6 11 6 13 4 7
-10 -12 -31 -18 -85 -9 -85 13 0 37 44 26 47 -13 5 -4 60 13 74 11 9 14 8 15
-2 0 -16 17 19 18 39 1 16 -19 15 -43 -3z"/>
<path d="M2511 3438 c-1 -21 4 -38 9 -38 12 0 12 27 0 55 -7 16 -9 13 -9 -17z"/>
<path d="M812 3443 c5 -25 28 -28 28 -4 0 12 -6 21 -16 21 -9 0 -14 -7 -12
-17z"/>
<path d="M1567 3436 c-4 -15 -6 -31 -2 -34 10 -10 16 6 13 35 l-3 28 -8 -29z"/>
<path d="M3005 3450 c3 -5 8 -10 11 -10 2 0 4 5 4 10 0 6 -5 10 -11 10 -5 0
-7 -4 -4 -10z"/>
<path d="M491 3447 c2 -1 12 -9 22 -16 14 -12 17 -11 17 3 0 10 -8 16 -22 16
-12 0 -19 -1 -17 -3z"/>
<path d="M2638 3405 c11 -27 59 -147 106 -265 47 -118 86 -218 86 -221 0 -4
-15 -9 -34 -11 -19 -2 -32 0 -30 4 7 11 -1 10 -96 -13 -87 -21 -197 -19 -211
3 -4 6 -24 1 -50 -13 -47 -26 -82 -61 -69 -69 14 -9 -18 -70 -37 -71 -46 -2
-98 4 -101 12 -2 5 -13 9 -25 9 -19 0 -19 1 -4 13 14 11 14 14 2 31 -14 19
-15 18 -21 -12 -4 -18 -12 -32 -18 -33 -6 0 -2 -4 9 -9 16 -7 17 -9 3 -9 -9
-1 -18 -6 -20 -12 -2 -6 -31 -9 -73 -7 l-70 3 45 27 c57 33 94 73 109 117 12
38 15 140 3 158 -4 7 -7 -14 -6 -45 2 -72 -5 -109 -17 -90 -6 8 -8 2 -7 -19 3
-41 -19 -65 -95 -103 -52 -26 -71 -30 -139 -30 -45 0 -78 -4 -78 -10 0 -5 -16
-10 -35 -10 -19 0 -35 5 -35 10 0 6 -51 10 -134 10 -104 0 -136 3 -145 14 -7
8 -18 59 -25 113 -14 105 -24 132 -64 176 l-26 27 36 38 c45 46 58 78 58 145
0 61 -26 122 -66 157 l-29 25 27 -30 c54 -60 69 -129 47 -210 -11 -38 -59 -97
-89 -107 -11 -3 -3 -15 27 -44 45 -43 55 -72 71 -199 6 -44 14 -88 17 -97 6
-16 0 -18 -57 -18 -36 0 -113 -3 -171 -7 l-107 -6 0 -41 c0 -23 7 -50 15 -60
21 -28 21 -294 0 -322 -8 -10 -15 -38 -15 -60 0 -35 4 -43 22 -48 40 -10 134
-6 146 6 17 17 15 70 -3 94 -16 21 -21 114 -6 114 6 0 31 -44 56 -97 51 -109
64 -123 111 -123 66 0 64 -7 64 204 0 150 3 197 15 220 8 15 15 48 15 72 0 32
4 44 15 44 12 0 15 -19 15 -109 0 -118 1 -121 59 -121 36 0 51 17 51 56 0 17
7 37 15 44 13 11 15 -5 15 -138 0 -121 -3 -152 -15 -162 -9 -7 -15 -29 -15
-51 0 -29 5 -41 23 -51 19 -11 11 -14 -78 -23 -86 -9 -100 -13 -103 -29 -3
-11 5 -26 17 -35 19 -14 22 -34 36 -201 20 -241 19 -287 -1 -298 -9 -5 -14
-18 -12 -28 3 -17 13 -19 116 -18 61 1 123 5 137 8 34 9 34 49 0 64 -18 8 -25
19 -25 39 0 31 -26 377 -35 461 -3 32 -1 52 5 52 5 0 10 -10 10 -23 0 -13 13
-34 30 -49 25 -21 30 -34 30 -70 0 -23 3 -59 6 -79 5 -29 2 -41 -15 -58 -28
-28 -27 -59 4 -83 18 -14 25 -29 25 -52 0 -61 20 -140 42 -163 51 -54 143 -50
193 9 35 41 32 84 -6 81 -25 -1 -27 2 -34 55 -5 44 -14 62 -38 87 -18 18 -39
34 -47 37 -11 3 -6 12 18 34 78 70 56 206 -42 253 -23 12 -49 21 -57 21 -11 0
-13 11 -11 44 3 30 -1 53 -12 68 -22 31 -24 279 -2 297 11 9 15 7 20 -11 3
-13 6 -35 6 -49 0 -29 16 -39 58 -39 47 0 50 9 53 122 1 59 6 105 11 102 4 -3
8 -22 8 -43 0 -22 6 -44 15 -51 22 -19 22 -312 0 -330 -11 -9 -15 -27 -13 -54
3 -36 7 -42 33 -51 17 -5 43 -21 58 -36 27 -25 28 -27 45 -254 17 -220 17
-229 0 -244 -22 -19 -23 -35 -3 -51 10 -9 40 -10 108 -5 52 4 99 10 105 14 7
4 4 92 -11 283 -11 153 -18 280 -14 284 3 3 13 -1 21 -9 9 -8 29 -18 46 -22
31 -7 74 -50 85 -86 5 -14 14 -19 28 -17 20 3 22 9 22 68 l0 65 34 -2 c18 -1
38 -7 42 -15 7 -11 169 -403 198 -481 6 -16 18 -27 29 -27 17 0 23 21 51 158
30 153 36 235 21 297 l-7 30 -7 -30 c-18 -72 -21 -72 -49 -1 -22 54 -25 71
-16 88 13 23 5 88 -11 98 -6 4 -30 101 -54 216 l-43 209 -96 3 c-93 3 -97 2
-102 -20 -2 -13 -20 -106 -40 -207 -22 -115 -41 -191 -51 -202 -9 -10 -14 -27
-11 -39 4 -15 0 -20 -14 -20 -16 0 -18 3 -9 19 5 11 10 46 10 79 0 45 -5 67
-23 93 -23 34 -23 35 -5 64 39 65 15 184 -43 216 -20 10 -20 12 -6 21 21 11
47 60 47 87 0 39 46 50 199 52 78 0 141 4 141 8 0 4 32 7 70 7 64 -1 70 1 70
19 0 22 -197 524 -212 540 -5 6 -1 -12 10 -40z m-1298 -724 c0 -22 6 -44 15
-51 16 -13 22 -120 7 -120 -8 0 -102 184 -102 200 0 6 18 10 40 10 40 0 40 0
40 -39z m906 -86 c4 -8 3 -26 0 -40 -6 -22 -12 -25 -51 -25 -41 0 -45 2 -45
24 0 45 10 56 51 56 26 0 42 -5 45 -15z m369 -127 c6 -31 4 -38 -8 -38 -23 0
-30 17 -22 57 8 42 21 34 30 -19z m-371 -64 c38 -37 8 -94 -49 -94 -43 0 -60
43 -35 91 13 23 62 26 84 3z m401 -75 c4 -5 0 -18 -9 -28 -9 -10 -16 -25 -16
-34 0 -10 -8 -17 -20 -17 -11 0 -20 6 -20 14 0 8 -7 22 -16 31 -13 12 -14 19
-4 30 14 17 76 20 85 4z"/>
<path d="M2949 3445 c-1 -5 -1 -13 0 -17 0 -4 -7 -5 -17 -2 -11 4 -8 -1 8 -15
16 -14 33 -19 48 -16 16 4 31 -3 52 -23 32 -33 85 -50 76 -25 -3 8 -6 17 -6
19 0 2 -7 4 -17 4 -9 0 -14 3 -10 6 12 12 -20 33 -42 27 -17 -4 -20 -2 -15 11
4 12 0 16 -15 16 -12 0 -21 -6 -21 -12 0 -7 -9 -2 -20 12 -11 14 -20 21 -21
15z"/>
<path d="M3060 3430 c0 -5 5 -10 11 -10 5 0 7 5 4 10 -3 6 -8 10 -11 10 -2 0
-4 -4 -4 -10z"/>
<path d="M2072 3402 c55 -67 49 -155 -14 -215 -32 -30 -38 -41 -27 -48 9 -5
16 -2 21 10 3 10 13 21 21 24 22 8 47 71 47 116 0 51 -20 99 -51 126 -21 18
-20 16 3 -13z"/>
<path d="M3170 3400 c6 -11 13 -20 16 -20 2 0 0 9 -6 20 -6 11 -13 20 -16 20
-2 0 0 -9 6 -20z"/>
<path d="M1510 3244 l0 -156 40 4 c22 2 41 1 42 -2 2 -3 35 -2 73 1 l70 5 -67
2 -67 2 -11 40 c-14 50 -20 51 -17 3 2 -34 0 -38 -23 -38 l-25 0 4 148 c2 105
0 147 -8 147 -8 0 -11 -47 -11 -156z"/>
<path d="M1608 3354 c-2 -29 2 -53 10 -63 8 -9 10 -10 6 -2 -4 8 -6 36 -5 63
3 61 -6 63 -11 2z"/>
<path d="M905 3380 c-3 -5 -1 -10 4 -10 6 0 11 5 11 10 0 6 -2 10 -4 10 -3 0
-8 -4 -11 -10z"/>
<path d="M605 3370 c-3 -5 -2 -10 4 -10 5 0 13 5 16 10 3 6 2 10 -4 10 -5 0
-13 -4 -16 -10z"/>
<path d="M2290 3375 c0 -5 5 -17 10 -25 5 -8 10 -10 10 -5 0 6 -5 17 -10 25
-5 8 -10 11 -10 5z"/>
<path d="M1979 3353 c12 -23 29 -38 37 -31 2 3 -8 15 -22 29 -25 23 -26 23
-15 2z"/>
<path d="M3320 3350 c0 -5 5 -10 11 -10 5 0 7 5 4 10 -3 6 -8 10 -11 10 -2 0
-4 -4 -4 -10z"/>
<path d="M2530 3346 c0 -2 9 -6 20 -9 11 -3 20 -1 20 4 0 5 -9 9 -20 9 -11 0
-20 -2 -20 -4z"/>
<path d="M940 3323 c0 -11 5 -34 11 -51 9 -25 8 -35 -4 -46 -14 -15 -12 -61 3
-71 8 -5 10 27 10 113 l0 52 84 0 c47 0 88 -5 91 -10 4 -6 11 -8 16 -5 5 4 9
2 9 -3 0 -5 12 -12 27 -15 l28 -5 -28 24 c-24 21 -39 24 -100 24 -40 0 -89 3
-109 6 -33 6 -38 4 -38 -13z"/>
<path d="M2375 3330 c3 -5 8 -10 11 -10 2 0 4 5 4 10 0 6 -5 10 -11 10 -5 0
-7 -4 -4 -10z"/>
<path d="M3058 3334 c-4 -3 -3 -16 2 -29 7 -17 5 -25 -6 -29 -8 -3 -14 -13
-14 -21 0 -9 -4 -13 -10 -10 -6 3 -10 -4 -11 -17 0 -21 -1 -21 -8 -3 -6 16 -9
14 -15 -15 -4 -19 -10 -29 -13 -22 -7 19 -19 14 -20 -8 -1 -11 2 -20 7 -20 5
0 7 -7 4 -15 -5 -11 1 -15 17 -15 18 0 20 3 10 9 -18 12 -7 41 19 48 10 3 23
17 29 32 6 17 10 20 10 9 1 -10 6 -18 11 -18 6 0 10 -5 10 -11 0 -5 -6 -7 -12
-4 -7 4 -5 0 6 -9 14 -11 17 -24 13 -53 -8 -62 -29 -156 -40 -181 -9 -20 -8
-26 6 -34 14 -8 16 -13 6 -24 -9 -11 -7 -14 11 -14 22 0 22 1 6 25 -14 21 -14
29 -4 48 7 12 12 30 13 40 0 10 6 22 14 26 9 6 10 11 2 15 -7 5 -8 29 -5 69 7
71 19 91 38 65 10 -13 15 -15 24 -6 17 17 15 33 -2 19 -11 -9 -18 -6 -34 14
-11 14 -26 24 -34 23 -17 -4 -23 45 -8 73 10 17 9 24 -2 35 -8 8 -17 12 -20 8z"/>
<path d="M3220 3320 c6 -11 13 -20 16 -20 2 0 0 9 -6 20 -6 11 -13 20 -16 20
-2 0 0 -9 6 -20z"/>
<path d="M577 3323 c-12 -11 -8 -68 7 -88 11 -16 13 -12 12 38 0 55 -5 65 -19
50z"/>
<path d="M1660 3260 c0 -40 4 -70 10 -70 6 0 10 26 10 59 0 44 4 60 16 65 31
12 149 6 178 -9 30 -16 30 -16 11 5 -16 18 -30 20 -122 20 l-103 0 0 -70z"/>
<path d="M2471 3314 c0 -11 3 -14 6 -6 3 7 2 16 -1 19 -3 4 -6 -2 -5 -13z"/>
<path d="M3347 3324 c-9 -9 5 -37 28 -56 26 -21 11 -37 -18 -19 -20 13 -21 13
-9 -1 10 -13 10 -17 0 -21 -7 -2 -1 -8 14 -12 16 -4 25 -11 22 -16 -11 -19
-46 -8 -86 29 l-41 37 24 -42 c13 -24 30 -43 37 -43 18 0 15 -9 -10 -32 l-23
-20 22 5 c12 3 24 2 26 -2 2 -3 2 -1 1 6 -5 19 27 45 47 40 15 -4 19 1 20 26
2 68 -3 112 -14 119 -15 9 -32 10 -40 2z"/>
<path d="M410 3292 c-13 -14 -12 -15 3 -9 9 3 17 2 17 -2 0 -5 -6 -12 -12 -14
-10 -4 -10 -6 -1 -6 17 -1 25 16 16 33 -7 12 -10 11 -23 -2z"/>
<path d="M2949 3283 c-6 -16 -11 -39 -12 -53 -2 -20 3 -25 25 -25 22 -1 27 4
30 32 2 18 0 33 -4 33 -4 0 -8 9 -8 20 0 29 -19 25 -31 -7z m14 -64 c-6 -6 -7
3 -4 23 4 28 6 29 9 9 2 -13 0 -27 -5 -32z"/>
<path d="M885 3290 c3 -5 8 -10 11 -10 2 0 4 5 4 10 0 6 -5 10 -11 10 -5 0 -7
-4 -4 -10z"/>
<path d="M2315 3280 c3 -5 8 -10 11 -10 2 0 4 5 4 10 0 6 -5 10 -11 10 -5 0
-7 -4 -4 -10z"/>
<path d="M1901 3264 c0 -11 3 -14 6 -6 3 7 2 16 -1 19 -3 4 -6 -2 -5 -13z"/>
<path d="M3129 3268 c0 -2 -2 -13 -3 -25 -4 -31 11 -29 16 2 3 14 1 25 -3 25
-5 0 -9 -1 -10 -2z"/>
<path d="M2462 3143 c-23 -64 -39 -119 -37 -122 8 -7 11 0 47 99 22 61 39 94
47 92 9 -2 11 3 7 13 -3 9 -6 21 -6 26 0 5 -4 9 -9 9 -4 0 -27 -53 -49 -117z"/>
<path d="M3160 3241 c0 -6 5 -13 10 -16 6 -3 10 1 10 9 0 9 -4 16 -10 16 -5 0
-10 -4 -10 -9z"/>
<path d="M135 3230 c-3 -5 -1 -10 4 -10 6 0 11 5 11 10 0 6 -2 10 -4 10 -3 0
-8 -4 -11 -10z"/>
<path d="M112 3200 c0 -14 2 -19 5 -12 2 6 2 18 0 25 -3 6 -5 1 -5 -13z"/>
<path d="M1080 3202 c0 -5 7 -9 15 -9 8 0 12 4 9 9 -3 4 -9 8 -15 8 -5 0 -9
-4 -9 -8z"/>
<path d="M3205 3190 c3 -5 8 -10 11 -10 2 0 4 5 4 10 0 6 -5 10 -11 10 -5 0
-7 -4 -4 -10z"/>
<path d="M1040 3160 c0 -5 5 -10 10 -10 6 0 10 5 10 10 0 6 -4 10 -10 10 -5 0
-10 -4 -10 -10z"/>
<path d="M4240 3145 c0 -8 4 -15 10 -15 5 0 7 7 4 15 -4 8 -8 15 -10 15 -2 0
-4 -7 -4 -15z"/>
<path d="M185 3130 c-3 -5 -1 -10 4 -10 6 0 11 5 11 10 0 6 -2 10 -4 10 -3 0
-8 -4 -11 -10z"/>
<path d="M3258 3132 c-27 -5 -22 -19 22 -69 26 -30 40 -55 40 -74 0 -15 5 -31
11 -35 8 -5 10 3 7 24 -4 27 -2 30 19 26 13 -3 23 0 23 6 0 5 7 10 15 10 8 0
15 8 15 18 0 13 -2 14 -9 3 -7 -11 -9 -11 -14 0 -4 12 -7 11 -16 -1 -10 -13
-12 -13 -22 0 -8 12 -9 10 -4 -8 6 -22 5 -23 -14 -13 -12 7 -21 18 -21 26 0 8
0 18 0 23 0 11 43 10 60 -2 8 -6 5 1 -5 15 -11 15 -23 25 -27 23 -4 -2 -10 1
-13 7 -4 5 -13 8 -21 5 -7 -3 -17 0 -21 7 -5 7 -16 11 -25 9z m44 -43 c-12
-11 -21 -13 -29 -7 -21 17 -15 27 16 25 27 -2 28 -3 13 -18z"/>
<path d="M1078 3113 c7 -3 16 -2 19 1 4 3 -2 6 -13 5 -11 0 -14 -3 -6 -6z"/>
<path d="M1165 3110 c-3 -5 -2 -10 4 -10 5 0 13 5 16 10 3 6 2 10 -4 10 -5 0
-13 -4 -16 -10z"/>
<path d="M1135 3100 c-3 -5 -1 -10 4 -10 6 0 11 5 11 10 0 6 -2 10 -4 10 -3 0
-8 -4 -11 -10z"/>
<path d="M3200 3095 c-7 -8 -17 -12 -24 -8 -6 4 -5 -1 3 -10 17 -21 16 -22 35
8 18 27 7 35 -14 10z"/>
<path d="M795 3090 c3 -5 8 -10 11 -10 2 0 4 5 4 10 0 6 -5 10 -11 10 -5 0 -7
-4 -4 -10z"/>
<path d="M80 3079 c0 -5 5 -7 10 -4 6 3 10 8 10 11 0 2 -4 4 -10 4 -5 0 -10
-5 -10 -11z"/>
<path d="M108 3063 c-3 -24 -7 -28 -31 -25 -25 3 -28 0 -22 -17 3 -12 2 -21
-3 -21 -5 0 -9 -7 -9 -15 0 -8 5 -15 10 -15 5 0 7 -15 4 -35 -3 -21 -2 -33 4
-30 5 4 10 -6 11 -22 1 -15 4 6 7 47 5 67 8 75 27 78 19 3 22 9 20 43 -1 45
-13 52 -18 12z"/>
<path d="M180 3056 c0 -9 5 -16 10 -16 6 0 10 4 10 9 0 6 -4 13 -10 16 -5 3
-10 -1 -10 -9z"/>
<path d="M916 3061 c-4 -5 -2 -12 3 -15 5 -4 12 -2 15 3 4 5 2 12 -3 15 -5 4
-12 2 -15 -3z"/>
<path d="M1655 3051 c4 -13 7 -52 7 -87 0 -58 1 -64 20 -64 15 0 18 3 11 13
-6 6 -13 35 -17 64 -10 78 4 87 121 81 58 -3 100 -11 111 -19 10 -8 7 -4 -6 9
-21 20 -33 22 -128 22 -76 0 -104 -3 -104 -12 0 -9 -4 -8 -11 2 -8 12 -9 10
-4 -9z"/>
<path d="M4475 3061 c-6 -11 9 -23 19 -14 9 9 7 23 -3 23 -6 0 -12 -4 -16 -9z"/>
<path d="M4625 3059 c-11 -17 1 -21 15 -4 8 9 8 15 2 15 -6 0 -14 -5 -17 -11z"/>
<path d="M1610 3050 c0 -5 5 -10 10 -10 6 0 10 5 10 10 0 6 -4 10 -10 10 -5 0
-10 -4 -10 -10z"/>
<path d="M3185 3030 c-3 -5 -1 -10 4 -10 6 0 11 -6 11 -12 0 -7 11 -18 24 -24
20 -9 23 -9 19 2 -3 8 -9 14 -13 14 -5 0 -12 9 -15 20 -7 22 -20 26 -30 10z"/>
<path d="M968 3013 c-16 -2 -28 -10 -28 -18 0 -20 -31 -27 -50 -10 -9 8 -20
12 -23 8 -11 -10 -8 -23 6 -23 6 0 24 -7 39 -14 26 -14 28 -13 40 12 13 26 17
27 95 30 60 2 91 -2 115 -13 l33 -16 -24 21 c-17 15 -37 20 -80 20 -31 0 -65
2 -76 4 -11 2 -32 1 -47 -1z"/>
<path d="M1240 3010 c0 -5 5 -10 10 -10 6 0 10 5 10 10 0 6 -4 10 -10 10 -5 0
-10 -4 -10 -10z"/>
<path d="M480 3002 c0 -6 -8 -8 -19 -5 -11 3 -21 -2 -24 -11 -4 -9 -1 -16 6
-16 8 0 7 -4 -3 -11 -12 -9 -12 -10 3 -5 10 3 21 6 23 6 3 0 2 6 -2 13 -5 9
-4 9 6 0 8 -8 10 -17 4 -26 -5 -7 -1 -4 9 6 19 21 22 43 7 52 -5 3 -10 2 -10
-3z"/>
<path d="M816 2982 c-9 -9 -23 -25 -30 -36 -11 -16 -16 -17 -37 -6 l-24 13 24
-27 c14 -14 19 -26 13 -26 -9 0 -9 -5 0 -20 12 -20 13 -19 18 12 4 24 10 32
22 30 9 -1 20 3 24 9 4 8 3 9 -4 5 -7 -4 -12 -1 -12 9 0 9 9 19 20 22 21 6 26
18 11 27 -4 3 -16 -2 -25 -12z"/>
<path d="M3097 2994 c-4 -4 1 -13 11 -20 14 -10 18 -10 23 4 5 13 7 12 11 -6
8 -28 -6 -37 -25 -17 -13 13 -16 13 -21 -1 -3 -8 -2 -12 4 -9 6 3 10 2 10 -4
0 -5 -5 -11 -12 -13 -8 -3 -9 -6 -1 -11 18 -11 64 32 61 57 -3 21 -45 35 -61
20z"/>
<path d="M280 2980 c0 -5 5 -10 11 -10 5 0 7 5 4 10 -3 6 -8 10 -11 10 -2 0
-4 -4 -4 -10z"/>
<path d="M775 2980 c-3 -5 -1 -10 4 -10 6 0 11 5 11 10 0 6 -2 10 -4 10 -3 0
-8 -4 -11 -10z"/>
<path d="M150 2951 c0 -5 5 -13 10 -16 6 -3 10 -2 10 4 0 5 -4 13 -10 16 -5 3
-10 2 -10 -4z"/>
<path d="M1196 2947 c3 -10 9 -15 12 -12 3 3 0 11 -7 18 -10 9 -11 8 -5 -6z"/>
<path d="M2210 2930 c0 -5 5 -10 10 -10 6 0 10 5 10 10 0 6 -4 10 -10 10 -5 0
-10 -4 -10 -10z"/>
<path d="M837 2917 c-3 -9 -3 -17 2 -17 5 0 8 -10 7 -22 -1 -14 4 -22 12 -20
6 1 12 -5 12 -13 0 -8 -4 -15 -10 -15 -5 0 1 -16 13 -35 22 -35 41 -47 31 -20
-4 10 0 15 11 15 10 0 13 -5 9 -12 -4 -7 -3 -8 4 -4 8 5 12 0 12 -13 0 -12 -6
-21 -14 -21 -8 0 -21 -3 -29 -6 -10 -4 -24 9 -41 38 -26 43 -30 43 -26 -1 1
-13 -3 -21 -8 -17 -5 3 -20 -30 -33 -74 -12 -44 -26 -80 -30 -80 -11 0 -19 59
-14 104 4 30 3 36 -4 21 -5 -11 -10 -14 -10 -7 -1 9 -27 12 -96 12 -52 0 -95
-1 -95 -2 -1 -39 -83 -415 -94 -430 -23 -32 -21 -85 3 -98 21 -11 120 -14 145
-4 21 8 21 77 0 99 -23 22 -1 45 43 45 38 0 57 -26 30 -42 -12 -6 -17 -22 -17
-53 0 -42 2 -44 33 -50 17 -3 59 -5 92 -3 l60 3 3 44 c2 26 -3 57 -12 75 -9
17 -25 80 -37 140 l-21 108 23 73 c24 81 50 122 68 110 8 -5 10 -20 6 -46 -5
-29 -2 -47 9 -64 23 -35 24 -319 1 -341 -22 -23 -19 -81 4 -94 21 -11 129 -14
155 -4 19 7 23 83 5 101 -10 10 -7 265 6 375 l7 57 -49 3 c-43 3 -48 6 -52 28
-3 28 -17 40 -46 40 -14 0 -21 7 -22 22 -1 13 -6 32 -11 43 -5 11 -14 31 -19
44 -8 21 -10 22 -16 8z m-193 -428 c9 -47 7 -59 -8 -59 -22 0 -29 17 -22 56 8
42 22 44 30 3z"/>
<path d="M120 2886 c0 -9 5 -16 10 -16 6 0 10 4 10 9 0 6 -4 13 -10 16 -5 3
-10 -1 -10 -9z"/>
<path d="M2720 2865 c-2 -5 -2 -12 -2 -15 0 -3 -16 -5 -36 -3 -20 2 -31 0 -24
-3 6 -3 10 -9 7 -13 -2 -5 8 -6 23 -3 24 5 26 3 13 -11 -7 -9 -17 -14 -22 -11
-5 3 -7 -1 -4 -8 3 -7 21 -18 41 -24 29 -10 34 -9 30 3 -6 14 24 15 35 1 9
-13 59 16 54 30 -3 8 -5 21 -5 30 -1 14 -4 13 -19 -5 -14 -16 -30 -23 -56 -23
-29 0 -35 3 -27 13 5 7 6 21 1 32 -4 11 -8 16 -9 10z"/>
<path d="M3020 2861 c0 -6 5 -13 10 -16 6 -3 10 1 10 9 0 9 -4 16 -10 16 -5 0
-10 -4 -10 -9z"/>
<path d="M2160 2850 c0 -5 7 -10 16 -10 8 0 12 5 9 10 -3 6 -10 10 -16 10 -5
0 -9 -4 -9 -10z"/>
<path d="M2854 2809 c0 -45 1 -48 23 -47 13 2 21 7 19 13 -2 5 -9 9 -15 8 -6
-2 -11 11 -11 31 0 19 -3 37 -7 39 -5 3 -8 -17 -9 -44z"/>
<path d="M1221 2834 c0 -11 3 -14 6 -6 3 7 2 16 -1 19 -3 4 -6 -2 -5 -13z"/>
<path d="M737 2780 c3 -11 7 -20 9 -20 2 0 4 9 4 20 0 11 -4 20 -9 20 -5 0 -7
-9 -4 -20z"/>
<path d="M1533 2773 c9 -2 25 -2 35 0 9 3 1 5 -18 5 -19 0 -27 -2 -17 -5z"/>
<path d="M4561 2636 c-9 -10 -9 -16 -1 -21 17 -10 37 12 24 25 -8 8 -15 6 -23
-4z"/>
<path d="M4920 2490 c0 -5 5 -10 10 -10 6 0 10 5 10 10 0 6 -4 10 -10 10 -5 0
-10 -4 -10 -10z"/>
<path d="M4765 2480 l-30 -8 35 0 c19 -1 53 3 75 7 l40 9 -45 0 c-25 0 -58 -4
-75 -8z"/>
<path d="M1360 2134 c0 -14 11 -40 25 -56 14 -16 30 -49 36 -74 13 -49 31 -69
55 -60 15 6 16 18 10 103 -4 53 -9 100 -12 104 -3 5 -30 9 -60 9 -52 0 -54 -1
-54 -26z"/>
<path d="M1178 2143 c-28 -3 -38 -9 -38 -21 0 -9 9 -129 20 -267 l20 -249 -27
-22 c-25 -19 -26 -23 -13 -39 13 -16 28 -17 139 -12 68 4 130 12 137 18 21 18
17 38 -11 51 -14 6 -27 21 -30 32 -2 12 -11 125 -20 251 -9 127 -19 238 -21
248 -5 17 -54 20 -156 10z"/>
<path d="M1041 2133 l-44 -4 7 -97 c7 -99 20 -130 49 -119 8 3 17 25 21 50 4
24 16 61 27 81 21 40 19 98 -4 94 -7 -1 -32 -3 -56 -5z"/>
<path d="M882 2121 c-78 -7 -92 -24 -55 -64 25 -25 26 -30 14 -62 -9 -26 -9
-40 -1 -55 16 -29 30 -21 63 36 16 27 42 63 58 79 16 17 29 34 29 37 0 10 -30
38 -38 36 -4 0 -35 -4 -70 -7z"/>
<path d="M602 2099 c-46 -4 -90 -13 -99 -20 -10 -9 -16 -10 -21 -2 -5 8 -35
10 -90 6 l-83 -6 3 -30 c3 -25 10 -32 48 -46 30 -11 52 -28 67 -51 53 -82 68
-79 68 13 0 37 3 67 8 67 4 0 11 0 16 0 9 0 221 -366 252 -433 10 -23 10 -32
0 -49 -10 -16 -10 -23 1 -35 11 -13 31 -15 133 -9 146 9 169 22 123 68 -21 21
-255 428 -260 452 -1 6 2 21 6 34 5 14 3 28 -4 37 -13 16 -38 17 -168 4z"/>
<path d="M135 2063 c-68 -6 -85 -12 -85 -32 0 -10 9 -25 21 -33 19 -12 22 -32
39 -243 l18 -230 -20 -22 c-13 -13 -18 -29 -14 -39 6 -14 20 -16 112 -12 57 3
109 9 115 15 9 9 -23 519 -36 581 -5 20 -11 22 -58 20 -28 -1 -70 -3 -92 -5z"/>
<path d="M2390 2019 c-6 -22 -18 -43 -26 -46 -24 -9 -16 -59 14 -91 15 -16 34
-40 43 -52 10 -16 20 -21 29 -15 10 6 11 31 7 110 -8 118 -12 135 -38 135 -13
0 -21 -12 -29 -41z"/>
<path d="M2614 1995 c3 -27 8 -97 12 -155 6 -105 6 -106 -21 -138 -40 -48 -29
-62 49 -62 35 0 71 3 80 6 24 9 19 41 -8 59 -32 21 -36 34 -46 136 -6 67 -15
99 -39 145 l-32 59 5 -50z"/>
<path d="M3967 1922 c-22 -24 -21 -32 3 -32 15 0 20 7 20 25 0 30 -2 30 -23 7z"/>
<path d="M380 1884 c-6 -14 -10 -29 -10 -33 0 -4 -9 -16 -20 -26 -27 -24 -25
-63 4 -86 13 -10 29 -32 36 -49 13 -30 44 -41 52 -17 8 22 -11 209 -23 223
-17 21 -28 17 -39 -12z"/>
<path d="M2490 1804 c-6 -14 -10 -29 -10 -34 0 -18 -61 -78 -86 -84 -20 -5
-25 -12 -22 -34 l3 -27 83 2 c46 1 87 4 90 8 9 9 2 143 -8 171 -12 32 -38 31
-50 -2z"/>
<path d="M631 1633 c-56 -113 -101 -135 -101 -50 0 23 -3 52 -6 65 -9 33 -45
25 -57 -13 -16 -48 -47 -86 -83 -101 -25 -11 -34 -21 -34 -38 0 -30 17 -34
110 -25 41 5 111 10 155 12 44 1 86 6 93 11 19 12 14 42 -10 59 -21 14 -22 17
-10 48 24 59 24 65 4 89 l-20 24 -41 -81z"/>
<path d="M2728 1603 c-26 -4 -28 -7 -28 -57 0 -28 4 -56 9 -61 11 -13 20 -164
11 -190 -7 -19 -7 -19 -17 0 -6 11 -22 63 -37 115 -42 151 -34 142 -113 134
-38 -4 -69 -8 -71 -10 -2 -1 -10 -53 -17 -116 -7 -62 -16 -125 -20 -140 -13
-51 1 -68 54 -68 31 0 53 5 61 15 10 11 16 12 26 4 8 -7 34 -9 66 -5 29 3 77
6 106 5 66 0 85 13 77 55 l-7 31 27 -37 c21 -31 32 -38 60 -38 63 0 67 5 59
79 -3 37 -7 108 -8 157 l-1 89 -42 3 c-31 2 -44 8 -48 23 -5 16 -15 19 -63 18
-31 -1 -69 -4 -84 -6z m122 -74 c0 -11 -4 -17 -10 -14 -5 3 -10 13 -10 21 0 8
5 14 10 14 6 0 10 -9 10 -21z m18 -54 c-3 -3 -9 2 -12 12 -6 14 -5 15 5 6 7
-7 10 -15 7 -18z m-301 -207 c-3 -8 -6 -5 -6 6 -1 11 2 17 5 13 3 -3 4 -12 1
-19z"/>
<path d="M3313 1595 c-62 -27 -74 -106 -23 -157 35 -35 36 -38 11 -38 -27 0
-31 -9 -24 -59 5 -38 10 -45 42 -58 23 -10 56 -14 95 -11 73 6 106 36 106 99
0 44 -24 99 -43 99 -7 1 -5 6 6 14 11 9 17 27 17 55 0 38 -3 43 -35 57 -43 18
-110 18 -152 -1z m97 -225 c0 -5 -4 -10 -10 -10 -5 0 -10 5 -10 10 0 6 5 10
10 10 6 0 10 -4 10 -10z"/>
<path d="M3042 1575 c-44 -19 -54 -52 -47 -149 12 -153 37 -182 147 -174 92 7
104 24 100 146 -2 110 -14 155 -45 177 -27 19 -111 19 -155 0z m90 -159 c2
-46 -1 -71 -9 -73 -11 -4 -24 117 -15 145 9 28 20 -6 24 -72z"/>
<path d="M2192 1531 c-42 -11 -68 -35 -75 -69 -9 -46 10 -221 27 -247 34 -52
159 -58 214 -10 26 23 27 25 24 121 -3 121 -15 169 -48 190 -29 20 -96 26
-142 15z m70 -183 c2 -47 -1 -78 -7 -78 -11 -1 -28 137 -20 159 11 30 23 -6
27 -81z"/>
<path d="M3606 1521 c-11 -11 -30 -21 -44 -21 -19 0 -23 -3 -16 -17 4 -10 8
-33 8 -50 0 -30 2 -33 30 -33 17 0 38 -4 46 -10 11 -7 19 1 37 36 13 25 23 47
23 49 0 1 -10 5 -23 9 -13 3 -27 17 -32 32 l-10 26 -19 -21z"/>
<path d="M1983 1513 c-29 -4 -33 -8 -33 -34 0 -17 5 -39 10 -49 6 -10 11 -74
13 -142 l2 -123 44 -3 c25 -2 55 -1 69 3 22 5 24 10 18 48 -3 23 -10 92 -16
152 -5 61 -12 120 -15 133 -6 23 -15 24 -92 15z"/>
<path d="M832 1450 c-404 -32 -735 -60 -738 -62 -2 -3 -1 -32 2 -66 5 -45 11
-62 23 -64 12 -3 1385 101 1516 114 28 3 30 6 33 47 6 79 -2 91 -56 90 -26 -1
-377 -27 -780 -59z"/>
<path d="M1830 1365 c-7 -8 -24 -15 -37 -15 -20 0 -24 -3 -17 -17 4 -10 8 -33
8 -50 0 -30 2 -33 30 -33 17 0 37 -4 45 -9 10 -7 20 3 37 36 13 24 24 46 24
47 0 2 -11 7 -24 10 -14 3 -28 15 -31 26 -8 24 -18 25 -35 5z"/>
</g>
</svg>
